<?xml version="1.0" encoding="utf-8"?>
<!-- Generator: Adobe Illustrator 16.0.0, SVG Export Plug-In . SVG Version: 6.00 Build 0)  -->
<!DOCTYPE svg PUBLIC "-//W3C//DTD SVG 1.1//EN" "http://www.w3.org/Graphics/SVG/1.1/DTD/svg11.dtd">
<svg version="1.1" xmlns="http://www.w3.org/2000/svg" xmlns:xlink="http://www.w3.org/1999/xlink" x="0px" y="0px" width="400px"
	 height="400px" viewBox="0 0 400 400" enable-background="new 0 0 400 400" xml:space="preserve">
<g id="Layer_2">
</g>
<g id="Layer_1">
	<rect fill="#662D91" width="400" height="400"/>
	<g>
		<g>
			<path fill="#FFFFFF" d="M165.449,244.247l-8.063-26.525h-52.625l-8.488,26.525H55.531l48.381-141.111
				c4.032-12.095,13.156-18.461,28.435-18.461c14.217,0,24.19,6.79,28.01,18.249l46.259,141.323H165.449z M131.498,125.629
				l-19.31,62.811h37.983L131.498,125.629z"/>
			<path fill="#FFFFFF" d="M297.858,153.002c27.161,5.729,42.016,18.037,42.016,43.926c0,33.103-25.252,49.229-57.506,49.229
				c-17.825,0-32.891-2.122-51.14-7.851l-14.218-4.881l6.153-33.315l14.218,5.093c14.429,5.093,30.345,9.125,44.562,9.125
				c10.822,0,19.521-4.668,19.521-15.49c0-8.063-4.668-12.731-15.49-15.066l-26.523-5.517c-27.162-5.729-42.016-18.674-42.016-44.35
				c0-33.315,24.614-48.593,57.506-48.593c17.824,0,32.678,2.334,50.927,8.063l14.217,4.456l-6.578,33.739l-14.217-5.305
				c-14.854-5.306-29.495-9.125-43.925-9.125c-11.459,0-19.522,4.668-19.522,15.49c0,8.064,4.668,12.52,15.703,14.854
				L297.858,153.002z"/>
		</g>
		<g>
			<path fill="#FFFFFF" d="M76.755,314.985l-1.435-4.717h-9.358l-1.51,4.717h-7.246l8.604-25.095
				c0.717-2.151,2.34-3.283,5.057-3.283c2.528,0,4.302,1.208,4.981,3.245l8.226,25.133H76.755z M70.717,293.891l-3.434,11.17h6.755
				L70.717,293.891z"/>
			<path fill="#FFFFFF" d="M100.304,298.759c4.83,1.019,7.472,3.207,7.472,7.811c0,5.887-4.491,8.756-10.227,8.756
				c-3.17,0-5.849-0.378-9.094-1.397l-2.528-0.867l1.094-5.925l2.528,0.906c2.566,0.905,5.396,1.622,7.925,1.622
				c1.924,0,3.472-0.83,3.472-2.755c0-1.434-0.831-2.264-2.755-2.68l-4.717-0.98c-4.83-1.019-7.472-3.32-7.472-7.887
				c0-5.925,4.377-8.642,10.227-8.642c3.169,0,5.811,0.415,9.056,1.434l2.528,0.793l-1.169,6l-2.529-0.943
				c-2.641-0.943-5.245-1.623-7.812-1.623c-2.037,0-3.471,0.83-3.471,2.755c0,1.435,0.83,2.227,2.792,2.642L100.304,298.759z"/>
			<path fill="#FFFFFF" d="M125.135,298.759c4.83,1.019,7.472,3.207,7.472,7.811c0,5.887-4.491,8.756-10.227,8.756
				c-3.169,0-5.849-0.378-9.094-1.397l-2.529-0.867l1.095-5.925l2.528,0.906c2.566,0.905,5.396,1.622,7.925,1.622
				c1.924,0,3.471-0.83,3.471-2.755c0-1.434-0.83-2.264-2.754-2.68l-4.717-0.98c-4.83-1.019-7.472-3.32-7.472-7.887
				c0-5.925,4.377-8.642,10.227-8.642c3.17,0,5.811,0.415,9.057,1.434l2.528,0.793l-1.17,6l-2.528-0.943
				c-2.641-0.943-5.245-1.623-7.812-1.623c-2.037,0-3.472,0.83-3.472,2.755c0,1.435,0.831,2.227,2.792,2.642L125.135,298.759z"/>
			<path fill="#FFFFFF" d="M139.892,314.985c-2.378,0-3.812-1.321-3.812-3.548v-20.981c0-2.188,1.434-3.547,3.812-3.547h16.491v5.32
				h-13.057v5.926h11.434v5.094h-11.434v6.453h13.132v5.283H139.892z"/>
			<path fill="#FFFFFF" d="M174.157,292.381v22.604h-7.283v-22.604H159.1v-5.472h22.83v5.472H174.157z"/>
			<path fill="#FFFFFF" d="M208.725,298.759c4.83,1.019,7.472,3.207,7.472,7.811c0,5.887-4.49,8.756-10.226,8.756
				c-3.17,0-5.85-0.378-9.095-1.397l-2.528-0.867l1.095-5.925l2.528,0.906c2.566,0.905,5.396,1.622,7.925,1.622
				c1.924,0,3.471-0.83,3.471-2.755c0-1.434-0.829-2.264-2.754-2.68l-4.717-0.98c-4.83-1.019-7.472-3.32-7.472-7.887
				c0-5.925,4.377-8.642,10.226-8.642c3.17,0,5.812,0.415,9.057,1.434l2.529,0.793l-1.17,6l-2.528-0.943
				c-2.642-0.943-5.245-1.623-7.812-1.623c-2.037,0-3.472,0.83-3.472,2.755c0,1.435,0.831,2.227,2.792,2.642L208.725,298.759z"/>
			<path fill="#FFFFFF" d="M223.48,314.985c-2.377,0-3.811-1.321-3.811-3.548v-20.981c0-2.188,1.434-3.547,3.811-3.547h16.491v5.32
				h-13.057v5.926h11.434v5.094h-11.434v6.453h13.132v5.283H223.48z"/>
			<path fill="#FFFFFF" d="M259.897,314.985l-4.038-9.963h-5.094v9.963h-7.245v-24.529c0-2.037,1.51-3.547,3.773-3.547h9.887
				c5.623,0,9.057,2.981,9.057,8.303c0,2.415-1.094,4.377-2.453,6.037l-1.472,1.773l5.17,11.963H259.897z M255.936,292.041h-5.17
				v7.85h6.265l1.018-1.321c0.681-0.904,1.246-1.924,1.246-3.132C259.294,293.4,258.274,292.041,255.936,292.041z"/>
			<path fill="#FFFFFF" d="M285.824,312.155c-0.68,2.037-2.34,3.057-4.867,3.057c-2.491,0-4.151-1.02-4.793-3.057l-8.15-25.246
				h7.357l5.773,20.378l5.925-20.378h7.245L285.824,312.155z"/>
			<path fill="#FFFFFF" d="M300.467,314.985c-2.377,0-3.811-1.321-3.811-3.548v-20.981c0-2.188,1.434-3.547,3.811-3.547h16.49v5.32
				h-13.056v5.926h11.434v5.094h-11.434v6.453h13.132v5.283H300.467z"/>
			<path fill="#FFFFFF" d="M336.884,314.985l-4.038-9.963h-5.094v9.963h-7.245v-24.529c0-2.037,1.509-3.547,3.773-3.547h9.887
				c5.623,0,9.056,2.981,9.056,8.303c0,2.415-1.094,4.377-2.452,6.037l-1.472,1.773l5.17,11.963H336.884z M332.921,292.041h-5.169
				v7.85h6.264l1.019-1.321c0.68-0.904,1.246-1.924,1.246-3.132C336.28,293.4,335.261,292.041,332.921,292.041z"/>
		</g>
	</g>
</g>
</svg>
